<svg xmlns="http://www.w3.org/2000/svg" width="62" height="56" focusable="false">
  <path fill-rule="evenodd" fill="#FFD86E" d="M36 36h20v20H36V36z"/>
  <path fill-rule="evenodd" fill="#FFAE1A" d="M50 30h12v12H50V30zM0 0h46v46H0V0z"/>
  <path fill-rule="evenodd" fill="#222" d="M21.956 27a4.965 4.965 0 01-4.987-5c0-2.723 2.249-5.001 4.987-5.001s4.987 2.278 4.987 5.001c0 2.822-2.249 5-4.987 5zm5.984-1.001A6.823 6.823 0 0028.937 22c.1-3.82-2.992-7-6.981-7-3.79 0-6.981 3.18-6.981 7 0 3.931 3.191 7.112 6.981 7 1.695.112 3.192-.386 3.989-1l2.992 3c.499-.099.798 0 .998 0 .199 0 .498-.099.997 0 .1-.696.1-1.292 0-2l-2.992-3.001z"/>
</svg>
